<?xml version="1.0" standalone="no"?>
<!DOCTYPE svg PUBLIC "-//W3C//DTD SVG 20010904//EN"
 "http://www.w3.org/TR/2001/REC-SVG-20010904/DTD/svg10.dtd">
<svg version="1.0" xmlns="http://www.w3.org/2000/svg"
 width="500.000000pt" height="500.000000pt" viewBox="0 0 500.000000 500.000000"
 preserveAspectRatio="xMidYMid meet">
<metadata>
Created by potrace 1.16, written by Peter Selinger 2001-2019
</metadata>
<g transform="translate(0.000000,500.000000) scale(0.100000,-0.100000)"
fill="#000000" stroke="none">
<path d="M0 2500 l0 -2500 2500 0 2500 0 0 2500 0 2500 -2500 0 -2500 0 0
-2500z m3100 555 l0 -75 -110 0 -110 0 0 75 0 75 110 0 110 0 0 -75z m-980
-425 l0 -450 100 0 100 0 0 370 0 370 115 0 115 0 0 -370 c0 -355 1 -370 19
-380 24 -12 32 -12 51 0 13 8 16 65 20 377 l5 368 113 3 112 3 0 -461 0 -460
-115 0 -115 0 0 35 0 35 -34 -37 c-30 -33 -39 -37 -93 -41 -73 -5 -123 15
-152 61 l-21 32 0 -42 0 -43 -220 0 -220 0 0 540 0 540 110 0 110 0 0 -450z
m980 -170 l0 -460 -110 0 -110 0 0 460 0 460 110 0 110 0 0 -460z m486 -264
c31 -31 34 -40 34 -91 0 -51 -3 -60 -34 -91 -31 -31 -40 -34 -91 -34 -51 0
-60 3 -91 34 -31 31 -34 40 -34 91 0 51 3 60 34 91 31 31 40 34 91 34 51 0 60
-3 91 -34z"/>
</g>
</svg>
